# xmcd
#
# Track frame offsets:
# 150
# 19635
# 38755
# 56022
# 73417
# 87972
# 99802
# 119782
# 134327
# 150725
# 168915
# 180857
#
# Disc length: 2594 seconds
#
#
# Revision: 0
# Processed by: cddbd v1.5.1PL0 Copyright (c) Steve Scherf et al.
# Submitted via: FreeRIP 2.91 
#
DISCID=980a200c
DTITLE=Hoskins Family - Places To Go, People To See
DYEAR=2003
DGENRE=Gospel
TTITLE0=Ordinary Sunday
TTITLE1=I'm Believin'
TTITLE2=Places To Go, People To See
TTITLE3=Palm of His Hand
TTITLE4=Sound Of His Voice
TTITLE5=What Are You Doing Right Now
TTITLE6=I'll Pray You On Your Way
TTITLE7=My God Is Able
TTITLE8=City Limits
TTITLE9=Somebody's Praying Right Now
TTITLE10=Pray Down The Power
TTITLE11=How Did God Know
EXTD=
EXTT0=
EXTT1=
EXTT2=
EXTT3=
EXTT4=
EXTT5=
EXTT6=
EXTT7=
EXTT8=
EXTT9=
EXTT10=
EXTT11=
PLAYORDER=
